<?xml version="1.0" encoding="utf-8"?>
<!-- Generator: Adobe Illustrator 16.0.0, SVG Export Plug-In . SVG Version: 6.00 Build 0)  -->
<!DOCTYPE svg PUBLIC "-//W3C//DTD SVG 1.1//EN" "http://www.w3.org/Graphics/SVG/1.1/DTD/svg11.dtd">
<svg version="1.1" id="PopaAdrianaMaria" xmlns="http://www.w3.org/2000/svg" xmlns:xlink="http://www.w3.org/1999/xlink" x="0px"
	 y="0px" width="34.344px" height="3.423px" viewBox="0 0 34.344 3.423" enable-background="new 0 0 34.344 3.423"
	 xml:space="preserve">
<line fill="none" stroke="#000000" stroke-width="0.1417" stroke-linecap="round" stroke-linejoin="round" stroke-miterlimit="10" x1="1.022" y1="3.063" x2="1.022" y2="0.369"/>
<line fill="none" stroke="#000000" stroke-width="0.1417" stroke-linecap="round" stroke-linejoin="round" stroke-miterlimit="10" x1="1.253" y1="0.369" x2="1.253" y2="3.063"/>
<path fill="none" stroke="#000000" stroke-width="0.1417" stroke-linecap="round" stroke-linejoin="round" stroke-miterlimit="10" d="
	M4.824,1.712c0-0.747-0.605-1.353-1.352-1.353c-0.747,0-1.352,0.605-1.352,1.353s0.604,1.352,1.352,1.352
	C4.219,3.063,4.824,2.459,4.824,1.712L4.824,1.712z"/>
<path fill="none" stroke="#000000" stroke-width="0.1417" stroke-linecap="round" stroke-linejoin="round" stroke-miterlimit="10" d="
	M1.813,1.036c0-0.374-0.303-0.677-0.676-0.677S0.462,0.662,0.462,1.036c0,0.373,0.303,0.676,0.676,0.676S1.813,1.409,1.813,1.036
	L1.813,1.036z"/>
<line fill="none" stroke="#000000" stroke-width="0.1417" stroke-linecap="round" stroke-linejoin="round" stroke-miterlimit="10" x1="5.668" y1="3.063" x2="5.668" y2="0.369"/>
<line fill="none" stroke="#000000" stroke-width="0.1417" stroke-linecap="round" stroke-linejoin="round" stroke-miterlimit="10" x1="5.897" y1="0.369" x2="5.897" y2="3.063"/>
<path fill="none" stroke="#000000" stroke-width="0.1417" stroke-linecap="round" stroke-linejoin="round" stroke-miterlimit="10" d="
	M6.459,1.036c0-0.374-0.303-0.677-0.676-0.677S5.107,0.662,5.107,1.036c0,0.373,0.303,0.676,0.676,0.676S6.459,1.409,6.459,1.036
	L6.459,1.036z"/>
<path fill="none" stroke="#000000" stroke-width="0.1417" stroke-linecap="round" stroke-linejoin="round" stroke-miterlimit="10" d="
	M8.18,1.036c0-0.374-0.303-0.677-0.676-0.677c-0.374,0-0.676,0.303-0.676,0.677"/>
<line fill="none" stroke="#000000" stroke-width="0.1417" stroke-linecap="round" stroke-linejoin="round" stroke-miterlimit="10" x1="8.18" y1="1.036" x2="8.18" y2="3.063"/>
<line fill="none" stroke="#000000" stroke-width="0.1417" stroke-linecap="round" stroke-linejoin="round" stroke-miterlimit="10" x1="6.828" y1="1.036" x2="6.828" y2="3.063"/>
<path fill="none" stroke="#000000" stroke-width="0.1417" stroke-linecap="round" stroke-linejoin="round" stroke-miterlimit="10" d="
	M11.946,1.036c0-0.374-0.303-0.677-0.676-0.677s-0.676,0.303-0.676,0.677"/>
<line fill="none" stroke="#000000" stroke-width="0.1417" stroke-linecap="round" stroke-linejoin="round" stroke-miterlimit="10" x1="11.946" y1="1.036" x2="11.946" y2="3.063"/>
<line fill="none" stroke="#000000" stroke-width="0.1417" stroke-linecap="round" stroke-linejoin="round" stroke-miterlimit="10" x1="10.595" y1="1.036" x2="10.595" y2="3.063"/>
<line fill="none" stroke="#000000" stroke-width="0.1417" stroke-linecap="round" stroke-linejoin="round" stroke-miterlimit="10" x1="12.419" y1="3.063" x2="12.419" y2="0.359"/>
<path fill="none" stroke="#000000" stroke-width="0.1417" stroke-linecap="round" stroke-linejoin="round" stroke-miterlimit="10" d="
	M12.419,3.063c0.746,0,1.352-0.604,1.352-1.352s-0.605-1.353-1.352-1.353"/>
<line fill="none" stroke="#000000" stroke-width="0.1417" stroke-linecap="round" stroke-linejoin="round" stroke-miterlimit="10" x1="14.172" y1="3.063" x2="14.172" y2="0.359"/>
<path fill="none" stroke="#000000" stroke-width="0.1417" stroke-linecap="round" stroke-linejoin="round" stroke-miterlimit="10" d="
	M14.172,3.063c0.746,0,1.352-0.604,1.352-1.352s-0.605-1.353-1.352-1.353"/>
<line fill="none" stroke="#000000" stroke-width="0.1417" stroke-linecap="round" stroke-linejoin="round" stroke-miterlimit="10" x1="14.172" y1="1.712" x2="15.523" y2="3.063"/>
<line fill="none" stroke="#000000" stroke-width="0.1417" stroke-linecap="round" stroke-linejoin="round" stroke-miterlimit="10" x1="16.104" y1="3.063" x2="16.104" y2="0.359"/>
<line fill="none" stroke="#000000" stroke-width="0.1417" stroke-linecap="round" stroke-linejoin="round" stroke-miterlimit="10" x1="16.334" y1="0.359" x2="16.334" y2="3.063"/>
<path fill="none" stroke="#000000" stroke-width="0.1417" stroke-linecap="round" stroke-linejoin="round" stroke-miterlimit="10" d="
	M18.28,1.036c0-0.374-0.303-0.677-0.676-0.677s-0.676,0.303-0.676,0.677"/>
<line fill="none" stroke="#000000" stroke-width="0.1417" stroke-linecap="round" stroke-linejoin="round" stroke-miterlimit="10" x1="18.28" y1="1.036" x2="18.28" y2="3.063"/>
<line fill="none" stroke="#000000" stroke-width="0.1417" stroke-linecap="round" stroke-linejoin="round" stroke-miterlimit="10" x1="16.929" y1="1.036" x2="16.929" y2="3.063"/>
<path fill="none" stroke="#000000" stroke-width="0.1417" stroke-linecap="round" stroke-linejoin="round" stroke-miterlimit="10" d="
	M20.262,0.359c-0.747,0-1.352,0.605-1.352,1.353s0.604,1.352,1.352,1.352"/>
<line fill="none" stroke="#000000" stroke-width="0.1417" stroke-linecap="round" stroke-linejoin="round" stroke-miterlimit="10" x1="18.91" y1="0.359" x2="18.91" y2="3.063"/>
<line fill="none" stroke="#000000" stroke-width="0.1417" stroke-linecap="round" stroke-linejoin="round" stroke-miterlimit="10" x1="20.262" y1="0.359" x2="20.262" y2="3.063"/>
<line fill="none" stroke="#000000" stroke-width="0.1417" stroke-linecap="round" stroke-linejoin="round" stroke-miterlimit="10" x1="18.91" y1="0.359" x2="20.262" y2="3.063"/>
<path fill="none" stroke="#000000" stroke-width="0.1417" stroke-linecap="round" stroke-linejoin="round" stroke-miterlimit="10" d="
	M27.055,1.712c0-0.747-0.605-1.353-1.352-1.353c-0.747,0-1.353,0.605-1.353,1.353s0.605,1.352,1.353,1.352
	C26.449,3.063,27.055,2.459,27.055,1.712L27.055,1.712z"/>
<line fill="none" stroke="#000000" stroke-width="0.1417" stroke-linecap="round" stroke-linejoin="round" stroke-miterlimit="10" x1="24.351" y1="0.359" x2="24.351" y2="3.063"/>
<line fill="none" stroke="#000000" stroke-width="0.1417" stroke-linecap="round" stroke-linejoin="round" stroke-miterlimit="10" x1="25.703" y1="0.359" x2="25.703" y2="3.063"/>
<line fill="none" stroke="#000000" stroke-width="0.1417" stroke-linecap="round" stroke-linejoin="round" stroke-miterlimit="10" x1="27.055" y1="0.359" x2="27.055" y2="3.063"/>
<polyline fill="none" stroke="#000000" stroke-width="0.1417" stroke-linecap="round" stroke-linejoin="round" stroke-miterlimit="10" points="
	24.351,0.359 25.703,3.063 27.055,0.359 "/>
<path fill="none" stroke="#000000" stroke-width="0.1417" stroke-linecap="round" stroke-linejoin="round" stroke-miterlimit="10" d="
	M22.195,1.036c0-0.374-0.303-0.677-0.676-0.677s-0.676,0.303-0.676,0.677"/>
<line fill="none" stroke="#000000" stroke-width="0.1417" stroke-linecap="round" stroke-linejoin="round" stroke-miterlimit="10" x1="22.195" y1="1.036" x2="22.195" y2="3.063"/>
<line fill="none" stroke="#000000" stroke-width="0.1417" stroke-linecap="round" stroke-linejoin="round" stroke-miterlimit="10" x1="20.844" y1="1.036" x2="20.844" y2="3.063"/>
<path fill="none" stroke="#000000" stroke-width="0.1417" stroke-linecap="round" stroke-linejoin="round" stroke-miterlimit="10" d="
	M29.047,1.036c0-0.374-0.303-0.677-0.676-0.677c-0.374,0-0.677,0.303-0.677,0.677"/>
<line fill="none" stroke="#000000" stroke-width="0.1417" stroke-linecap="round" stroke-linejoin="round" stroke-miterlimit="10" x1="29.047" y1="1.036" x2="29.047" y2="3.063"/>
<line fill="none" stroke="#000000" stroke-width="0.1417" stroke-linecap="round" stroke-linejoin="round" stroke-miterlimit="10" x1="27.694" y1="1.036" x2="27.694" y2="3.063"/>
<line fill="none" stroke="#000000" stroke-width="0.1417" stroke-linecap="round" stroke-linejoin="round" stroke-miterlimit="10" x1="29.726" y1="3.063" x2="29.726" y2="0.359"/>
<path fill="none" stroke="#000000" stroke-width="0.1417" stroke-linecap="round" stroke-linejoin="round" stroke-miterlimit="10" d="
	M29.726,3.063c0.746,0,1.352-0.604,1.352-1.352s-0.605-1.353-1.352-1.353"/>
<line fill="none" stroke="#000000" stroke-width="0.1417" stroke-linecap="round" stroke-linejoin="round" stroke-miterlimit="10" x1="29.726" y1="1.712" x2="31.077" y2="3.063"/>
<line fill="none" stroke="#000000" stroke-width="0.1417" stroke-linecap="round" stroke-linejoin="round" stroke-miterlimit="10" x1="31.658" y1="3.063" x2="31.658" y2="0.359"/>
<line fill="none" stroke="#000000" stroke-width="0.1417" stroke-linecap="round" stroke-linejoin="round" stroke-miterlimit="10" x1="31.889" y1="0.359" x2="31.889" y2="3.063"/>
<path fill="none" stroke="#000000" stroke-width="0.1417" stroke-linecap="round" stroke-linejoin="round" stroke-miterlimit="10" d="
	M33.882,1.036c0-0.374-0.303-0.677-0.676-0.677S32.53,0.662,32.53,1.036"/>
<line fill="none" stroke="#000000" stroke-width="0.1417" stroke-linecap="round" stroke-linejoin="round" stroke-miterlimit="10" x1="33.882" y1="1.036" x2="33.882" y2="3.063"/>
<line fill="none" stroke="#000000" stroke-width="0.1417" stroke-linecap="round" stroke-linejoin="round" stroke-miterlimit="10" x1="32.53" y1="1.036" x2="32.53" y2="3.063"/>
</svg>
